<?xml version="1.0" encoding="UTF-8" standalone="no"?>
<svg
   xmlns:dc="http://purl.org/dc/elements/1.1/"
   xmlns:cc="http://creativecommons.org/ns#"
   xmlns:rdf="http://www.w3.org/1999/02/22-rdf-syntax-ns#"
   xmlns:svg="http://www.w3.org/2000/svg"
   xmlns="http://www.w3.org/2000/svg"
   xmlns:sodipodi="http://sodipodi.sourceforge.net/DTD/sodipodi-0.dtd"
   xmlns:inkscape="http://www.inkscape.org/namespaces/inkscape"
   id="svg2"
   height="71mm"
   viewBox="0 0 531.49606 251.57481"
   width="150mm"
   version="1.1"
   inkscape:version="0.91 r13725"
   sodipodi:docname="aurailus.design.svg">
  <metadata
     id="metadata4249">
    <rdf:RDF>
      <cc:Work
         rdf:about="">
        <dc:format>image/svg+xml</dc:format>
        <dc:type
           rdf:resource="http://purl.org/dc/dcmitype/StillImage" />
        <dc:title />
      </cc:Work>
    </rdf:RDF>
  </metadata>
  <defs
     id="defs4247" />
  <sodipodi:namedview
     pagecolor="#ffffff"
     bordercolor="#666666"
     borderopacity="1"
     objecttolerance="10"
     gridtolerance="10"
     guidetolerance="10"
     inkscape:pageopacity="0"
     inkscape:pageshadow="2"
     inkscape:window-width="1920"
     inkscape:window-height="1004"
     id="namedview4245"
     showgrid="false"
     inkscape:zoom="2.6416"
     inkscape:cx="265.74803"
     inkscape:cy="148.14233"
     inkscape:window-x="0"
     inkscape:window-y="0"
     inkscape:window-maximized="1"
     inkscape:current-layer="layer1" />
  <g
     id="layer1"
     transform="translate(0,-800.79014)">
    <path
       style="fill:#6bb4e6"
       inkscape:connector-curvature="0"
       d="m 74.054493,878.15985 0,-20.574 q 0,-4.2294 -1.6488,-7.957 -1.5771,-3.7993 -4.3728,-6.595 -2.7957,-2.7957 -6.595,-4.3728 -3.7276,-1.6487 -7.957,-1.6487 -4.2294,0 -8.0287,1.6487 -3.7276,1.5771 -6.5233,4.3728 -2.7957,2.7957 -4.4445,6.595 -1.5771,3.7276 -1.5771,7.957 l 0,20.574 41.147,0 z m 20.574,41.075 -20.574,0 0,-20.574 -41.147,0 0,20.574 -20.501999,0 0,-61.649 q 0,-8.5305 3.225799,-15.986 3.2258,-7.5269 8.7456,-13.118 5.5914,-5.5914 13.047,-8.8172 7.5269,-3.2258 16.057,-3.2258 8.5305,0 15.986,3.2258 7.5269,3.2258 13.118,8.8172 5.5914,5.5914 8.8172,13.118 3.2258,7.4552 3.2258,15.986 l 0,61.649 z"
       id="path4138" />
    <path
       style="fill:#efefef;fill-opacity:1"
       id="path4140"
       d="m 160.22549,910.26985 q -2.3656,2.1506 -5.0896,4.086 -2.6524,1.8638 -5.5914,3.2975 -2.9391,1.362 -6.0932,2.1506 -3.0824,0.86021 -6.3083,0.86021 -7.0968,0 -13.333,-2.509 -6.2366,-2.509 -10.968,-7.0968 -4.6595,-4.6595 -7.3835,-11.255 -2.6523,-6.6667 -2.6523,-14.91 l 0,-42.437 19.498,0 0,42.437 q 0,3.871 1.147,6.9534 1.2186,3.0108 3.2258,5.0896 2.0072,2.0789 4.6595,3.1542 2.724,1.0753 5.8065,1.0753 3.0108,0 5.6631,-1.362 2.724,-1.4337 4.7312,-3.7276 2.0072,-2.2939 3.1541,-5.1613 1.147,-2.9391 1.147,-6.0215 l 0,-42.437 19.57,0 0,76.775 -4.7312,0 -6.4516,-8.9606 z"
       inkscape:connector-curvature="0" />
    <path
       style="fill:#efefef;fill-opacity:1"
       id="path4142"
       d="m 199.24278,919.22985 -19.36729,0 0,-75.97975 4.68219,0 6.38478,9.0097 q 4.68219,-4.25655 10.64161,-6.52669 5.95923,-2.34109 12.34381,-2.34109 l 17.09705,0 0,19.29603 -17.09705,0 q -3.05048,0 -5.74636,1.13512 -2.69578,1.13512 -4.68219,3.12153 -1.98641,1.98641 -3.12153,4.68219 -1.13512,2.69579 -1.13512,5.74636 l 0,41.85591 z"
       inkscape:connector-curvature="0" />
    <path
       style="fill:#efefef;fill-opacity:1"
       id="path4144"
       d="m 307.78,919.28645 -16.12037,0 0.0215,-10.12195 c 0.50799,2.0535 0.47562,2.46172 -1.45902,4.54441 -1.97387,1.3771 -4.06242,2.59349 -6.26575,3.64929 -2.20334,1.00989 -4.47553,1.81317 -6.8166,2.40994 -2.29516,0.59675 -4.63623,0.89512 -7.02321,0.89512 -5.18709,0 -10.07584,-0.87216 -14.66615,-2.61644 -4.54441,-1.74432 -8.53795,-4.26893 -11.98055,-7.57398 -3.39686,-3.35096 -6.08219,-7.43633 -8.05605,-12.25622 -1.97386,-4.81977 -2.96071,-10.30539 -2.96071,-16.45655 0,-5.73784 0.98694,-10.99409 2.96071,-15.76785 1.97386,-4.8198 4.65919,-8.95108 8.05605,-12.39357 3.44269,-3.44268 7.43633,-6.10515 11.98055,-7.98709 4.59031,-1.92795 9.47897,-2.89194 14.66615,-2.89194 2.38698,0 4.75101,0.29838 7.09198,0.89511 2.34107,0.59675 4.61327,1.423 6.8166,2.4788 2.20333,1.05581 4.20169,2.32522 6.17546,3.74823 2.38084,2.20545 2.48659,3.11429 1.48045,4.58322 l 4.07124,-11.29858 12.02761,0 z m -18.9347,-37.52552 c 0,-2.57054 -0.50492,-5.04935 -1.51482,-7.43633 -0.96397,-2.43289 -2.29516,-4.56735 -3.99355,-6.40349 -1.69839,-1.88204 -3.69521,-3.37382 -5.99036,-4.47553 -2.24925,-1.14763 -4.65919,-1.72135 -7.22973,-1.72135 -2.57053,0 -5.00343,0.43607 -7.29859,1.30823 -2.24925,0.87217 -4.22311,2.15742 -5.92149,3.8559 -1.65248,1.69839 -2.9607,3.81 -3.92469,6.33462 -0.96397,2.47881 -1.44596,5.32473 -1.44596,8.53795 0,3.21322 0.48198,6.0822 1.44596,8.60682 0.96399,2.47871 2.27221,4.56735 3.92469,6.26573 1.69838,1.6984 3.67224,2.98377 5.92149,3.85592 2.29516,0.87216 4.72806,1.30822 7.29859,1.30822 2.57054,0 4.98048,-0.55084 7.22973,-1.65247 2.29515,-1.14754 4.29197,-2.63942 5.99036,-4.47554 1.69839,-1.88204 3.02967,-4.0165 3.99355,-6.40348 1.00989,-2.4329 1.51482,-4.93456 1.51482,-7.5052 z"
       inkscape:connector-curvature="0" />
    <path
       style="fill:#efefef;fill-opacity:1"
       id="path4168"
       d="m 334.96288,838.29579 q 0,2.05541 -0.81135,3.8404 -0.75726,1.785 -2.1095,3.13721 -1.3523,1.29819 -3.1913,2.1095 -1.785,0.75725 -3.8404,0.75725 -2.0554,0 -3.8945,-0.75725 -1.785,-0.81138 -3.1372,-2.1095 -1.2982,-1.3523 -2.10951,-3.13721 -0.75726,-1.78499 -0.75726,-3.8404 0,-2.0013 0.75726,-3.7863 0.81136,-1.83909 2.10951,-3.1372 1.35229,-1.35229 3.1372,-2.1095 1.8391,-0.81135 3.8945,-0.81135 2.0554,0 3.8404,0.81135 1.839,0.75726 3.1913,2.1095 1.35229,1.2982 2.1095,3.1372 0.81135,1.785 0.81135,3.7863 z"
       inkscape:connector-curvature="0" />
    <path
       style="fill:#efefef;fill-opacity:1"
       id="path4146"
       d="m 335.46,919.22985 -19.713,0 0,-67.31104 19.713,0 0,67.31104 z"
       inkscape:connector-curvature="0" />
    <path
       style="fill:#efefef;fill-opacity:1"
       id="path4148"
       d="m 363.64,919.22985 -19.713,0 0,-107.31 19.713,0 0,107.31 z"
       inkscape:connector-curvature="0" />
    <path
       style="fill:#efefef;fill-opacity:1"
       id="path4150"
       d="m 427.17736,910.69393 q -2.26908,2.06286 -4.88194,3.9193 -2.5441,1.78775 -5.36328,3.16296 -2.8192,1.30642 -5.8446,2.06286 -2.95666,0.82511 -6.05094,0.82511 -6.80726,0 -12.78904,-2.40664 -5.98214,-2.40664 -10.52052,-6.80726 -4.46939,-4.4694 -7.08236,-10.7958 -2.54408,-6.39472 -2.54408,-14.3017 l 0,-40.70562 18.7025,0 0,40.70562 q 0,3.71306 1.10022,6.66972 1.16888,2.88796 3.09418,4.88194 1.92532,1.99408 4.4694,3.02552 2.61286,1.03142 5.5696,1.03142 2.88796,0 5.43206,-1.30642 2.61286,-1.37522 4.53818,-3.57552 1.9253,-2.20032 3.0254,-4.95074 1.10022,-2.81918 1.10022,-5.77582 l 0,-40.70564 18.77156,0 0,73.6427 -4.53817,0 -6.18839,-8.59502 z"
       inkscape:connector-curvature="0" />
    <path
       style="fill:#efefef;fill-opacity:1"
       id="path4152"
       d="m 486.93019,919.28837 -51.63607,0 0.36996,-18.8657 51.26662,0 c 1.29472,0 2.40445,-0.46238 3.32923,-1.3872 0.92477,-0.92479 1.38712,-2.03451 1.38712,-3.32923 0,-1.34095 -0.46238,-2.21949 -1.38712,-2.63559 -0.92478,-0.41616 -2.03451,-0.62423 -3.32923,-0.62423 l -19.69756,0 c -3.28299,0 -6.35788,-0.62424 -9.2251,-1.87268 -2.86679,-1.24847 -5.36365,-2.93615 -7.49066,-5.06316 -2.12699,-2.17324 -3.81469,-4.69322 -5.06316,-7.5601 -1.20222,-2.8668 -1.80329,-5.9417 -1.80329,-9.2251 0,-3.28298 0.60111,-6.35788 1.80329,-9.22425 1.24847,-2.8668 2.93617,-5.36375 5.06316,-7.49074 2.12701,-2.12701 4.62387,-3.79158 7.49066,-4.9938 2.86689,-1.24847 5.9417,-1.87265 9.2251,-1.87265 l 38.3555,0 -4.12271,19.83579 -34.2322,-0.9701 c -1.29422,-0.0367 -2.40447,0.46239 -3.32923,1.38721 -0.92478,0.92475 -1.38712,2.0345 -1.38712,3.32913 0,1.34096 0.46236,2.49696 1.38712,3.46788 0.92476,0.92476 2.0345,1.3872 3.32923,1.3872 l 19.69757,0 c 3.23672,0 6.2885,0.55486 9.15556,1.66457 2.86679,1.0635 5.36374,2.56622 7.49064,4.50834 2.12701,1.94202 3.81471,4.27712 5.06316,7.00518 1.24847,2.72807 1.87268,5.71047 1.87268,8.94696 0,3.28298 -0.62422,6.35788 -1.87268,9.22509 -1.24845,2.82057 -2.93615,5.31752 -5.06316,7.49067 -2.12699,2.12698 -4.62385,3.81468 -7.49064,5.06315 -2.86682,1.20222 -5.91857,1.80331 -9.15556,1.80331 z"
       inkscape:connector-curvature="0" />
    <path
       style="fill:#efefef;fill-opacity:1"
       id="path4154"
       d="m 149.45697,971.62193 q 0,6.51213 -1.71025,12.56399 -1.64446,5.98588 -4.73609,11.24813 -3.09163,5.19655 -7.36726,9.53775 -4.27563,4.2756 -9.53769,7.3673 -5.26234,3.0916 -11.3142,4.8018 -5.98588,1.6445 -12.49792,1.6445 l -28.41671,0 0,-94.33093 28.41671,0 q 6.51214,0 12.49792,1.71026 6.05167,1.64446 11.3142,4.73609 5.26234,3.09163 9.53769,7.43305 4.27563,4.27572 7.36726,9.53769 3.09163,5.19664 4.73609,11.24813 1.71025,5.98588 1.71025,12.49792 z m -18.87902,0 q 0,-5.85439 -2.2365,-10.98478 -2.17071,-5.13075 -6.05168,-8.94592 -3.81517,-3.88096 -9.01171,-6.11747 -5.13075,-2.2365 -10.98477,-2.2365 l -9.406476,0 0,56.57011 9.406476,0 q 5.85438,0 10.98477,-2.1707 5.19654,-2.23655 9.01171,-6.05172 3.88097,-3.88097 6.05168,-9.01172 2.2365,-5.19655 2.2365,-11.05084 z"
       inkscape:connector-curvature="0" />
    <path
       style="fill:#efefef;fill-opacity:1"
       id="path4156"
       d="m 184.66644,1000.5564 q 1.013,0.3165 2.02592,0.4431 1.013,0.063 2.02592,0.063 2.53242,0 4.87488,-0.6964 2.34254,-0.69643 4.36846,-1.96263 2.08925,-1.3296 3.67199,-3.16554 1.64607,-1.89928 2.65907,-4.17845 l 12.66213,12.72582 q -2.40578,3.4187 -5.57136,6.1411 -3.10224,2.7223 -6.77424,4.6217 -3.60875,1.8993 -7.66059,2.8489 -3.98853,1.013 -8.23034,1.013 -7.1541,0 -13.48525,-2.659 -6.26774,-2.6591 -11.01588,-7.4074 -4.685,-4.7483 -7.40731,-11.26943 -2.7223,-6.58426 -2.7223,-14.43464 0,-8.04045 2.7223,-14.68813 2.72231,-6.64769 7.40731,-11.33294 4.74832,-4.685 11.01588,-7.28075 6.33106,-2.59575 13.48525,-2.59575 4.24181,0 8.29366,1.013 4.05184,1.01301 7.6606,2.91229 3.67199,1.89936 6.83756,4.68499 3.16558,2.72231 5.57136,6.1411 l -32.41529,39.06306 z m 8.86357,-35.64424 q -1.20289,-0.44317 -2.40578,-0.56982 -1.13956,-0.12656 -2.40578,-0.12656 -3.54543,0 -6.71091,1.32953 -3.10226,1.26621 -5.44471,3.672 -2.27922,2.40577 -3.60866,5.82455 -1.32954,3.35546 -1.32954,7.59723 0,0.94974 0.0633,2.15264 0.12657,1.2029 0.31656,2.46903 0.25324,1.2029 0.56979,2.34248 0.31656,1.13968 0.82304,2.02601 l 20.13293,-26.717 z"
       inkscape:connector-curvature="0" />
    <path
       style="fill:#efefef;fill-opacity:1"
       id="path4160"
       d="m 309.47341,1016.7089 -18.92065,0 0,-62.15939 18.92065,0 z"
       inkscape:connector-curvature="0" />
    <path
       style="fill:#efefef;fill-opacity:1"
       id="path4162"
       d="m 366.01569,984.48579 c 0,-2.31541 -0.4548,-4.54797 -1.36443,-6.69801 -0.86827,-2.19136 -2.06729,-4.11391 -3.59706,-5.76774 -1.52975,-1.69518 -3.32833,-3.03894 -5.39563,-4.03118 -2.02592,-1.03369 -4.19661,-1.55045 -6.51193,-1.55045 -2.31533,0 -4.50668,0.39269 -6.57396,1.17835 -2.02594,0.78556 -3.80383,1.94322 -5.3336,3.47299 -1.48841,1.52985 -2.66675,3.43172 -3.53502,5.70569 -0.86827,2.23271 -1.30241,4.7962 -1.30241,7.69035 0,2.77001 0.43413,5.27152 1.30241,7.50417 0.86827,2.19127 2.04661,4.07258 3.53502,5.64371 1.52977,1.5712 3.30766,2.79093 5.3336,3.65913 2.06728,0.827 4.25863,1.2403 6.57396,1.2403 2.31532,0 4.48601,-0.4959 6.51193,-1.4884 2.0673,-1.0336 3.86588,-2.37743 5.39563,-4.03123 1.52977,-1.69522 2.72879,-3.61772 3.59706,-5.76769 0.90963,-2.19136 1.36443,-4.44457 1.36443,-6.75999 z m 17.05481,25.42771 c 0,4.6721 -0.88895,9.0548 -2.66677,13.1478 -1.77789,4.0933 -4.21728,7.6696 -7.31816,10.7297 -3.05963,3.0596 -6.65667,5.4782 -10.79108,7.2561 -4.09322,1.778 -8.47583,2.6669 -13.14776,2.6669 l -17.82133,-0.1241 4.98754,-16.931 12.70912,0.1239 c 2.64617,0 4.89946,-0.3514 6.76007,-1.0544 1.8606,-0.6616 3.43172,-1.5918 4.71336,-2.7908 1.28172,-1.1577 2.29474,-2.5014 3.03894,-4.0312 0.78557,-1.5297 1.40579,-3.1422 1.86061,-4.8375 -0.66154,1.075 -1.61248,1.9641 -2.85286,2.6668 -1.24037,0.6617 -2.62548,1.1992 -4.15525,1.6126 -1.48841,0.4547 -3.05962,0.765 -4.71345,0.9302 -1.61248,0.1655 -3.12157,0.2481 -4.52736,0.2481 -4.67209,0 -9.07547,-0.8063 -13.21005,-2.4187 -4.09322,-1.6124 -7.69027,-3.9071 -10.79108,-6.884 -3.05961,-3.0183 -5.47833,-6.6981 -7.25613,-11.03953 -1.7779,-4.34127 -2.66676,-9.2406 -2.66676,-14.69802 0,-5.00284 0.88895,-9.65428 2.66676,-13.95412 1.77789,-4.29998 4.19661,-8.0211 7.25613,-11.16308 3.1009,-3.14225 6.69804,-5.6024 10.79108,-7.38021 4.13458,-1.77789 8.53788,-2.66676 13.21005,-2.66676 2.15,0 4.27923,0.26876 6.38787,0.80623 2.10864,0.5375 4.15526,1.28173 6.13984,2.23271 1.98457,0.95098 3.86586,2.06729 5.64367,3.34902 1.81924,1.28172 3.51434,2.66676 5.08554,4.15525 l 6.57398,-7.87638 4.09322,0 0,57.92559 z"
       inkscape:connector-curvature="0" />
    <path
       style="fill:#efefef;fill-opacity:1"
       id="path4164"
       d="m 407.51602,1016.7089 -17.16499,0 0,-67.33902 4.14977,0 5.65883,6.53901 q 4.14977,-3.77253 9.36839,-5.78453 5.2815,-2.07488 11.00331,-2.07488 6.16177,0 11.6322,2.38924 5.47017,2.32644 9.55696,6.47613 4.08688,4.08687 6.41332,9.62011 2.38924,5.47016 2.38924,11.69447 l 0,38.47957 -17.16499,0 0,-38.47957 q 0,-2.6408 -1.00605,-4.96715 -1.00603,-2.38933 -2.76656,-4.14976 -1.76054,-1.76054 -4.08689,-2.76658 -2.32643,-1.00595 -4.96714,-1.00595 -2.70369,0 -5.09293,1.00595 -2.38924,1.00604 -4.14977,2.76658 -1.76053,1.76043 -2.76657,4.14976 -1.00604,2.32635 -1.00604,4.96715 l 0,38.47957 z"
       inkscape:connector-curvature="0" />
    <path
       style="fill:#efefef;fill-opacity:1"
       id="path4152-0"
       d="m 262.25907,1016.8924 -39.7739,0 5.20055,-17.33723 34.57397,0 c 1.18981,0 2.2097,-0.4249 3.05957,-1.2748 0.84988,-0.8498 1.27483,-1.86969 1.27483,-3.05948 0,-1.23236 -0.42494,-2.03977 -1.27483,-2.42223 -0.84988,-0.38247 -1.86976,-0.5736 -3.05957,-0.5736 l -18.10281,0 c -3.01708,0 -5.84289,-0.5737 -8.47753,-1.72099 -2.63464,-1.14739 -4.92926,-2.69843 -6.88403,-4.65314 -1.95468,-1.99728 -3.50576,-4.31307 -4.65308,-6.94771 -1.1048,-2.63463 -1.65725,-5.46045 -1.65725,-8.47752 0,-3.01708 0.55244,-5.84289 1.65725,-8.47753 1.14732,-2.63455 2.6984,-4.92926 4.65308,-6.88394 1.95469,-1.95468 4.24939,-3.48452 6.88403,-4.58932 2.63464,-1.14731 5.46045,-1.72101 8.47753,-1.72101 l 39.20653,0 -3.92222,18.22907 -35.28493,-0.89149 c -1.18963,-0.0231 -2.2097,0.42494 -3.05958,1.27481 -0.84987,0.84989 -1.27482,1.86968 -1.27482,3.0595 0,1.23231 0.42494,2.29471 1.27482,3.18709 0.84989,0.84987 1.86977,1.27481 3.05958,1.27481 l 18.10281,0 c 2.97457,0 5.77913,0.50986 8.41377,1.52974 2.63464,0.97739 4.92926,2.35837 6.88403,4.14308 1.95468,1.78476 3.50577,3.9307 4.65308,6.43781 1.1473,2.5072 1.72101,5.24802 1.72101,8.22266 0,3.01699 -0.57367,5.84292 -1.72101,8.47752 -1.14731,2.5921 -2.6984,4.8868 -4.65308,6.884 -1.95468,1.9548 -4.24939,3.5057 -6.88403,4.6531 -2.63464,1.1049 -5.4392,1.6572 -8.41377,1.6572 z"
       inkscape:connector-curvature="0"
       sodipodi:nodetypes="cccscsssscccscscscccsscssccssccccc" />
    <path
       style="fill:#efefef;fill-opacity:1"
       id="path4168-3"
       d="m 309.40081,942.09408 q 0,1.95949 -0.77348,3.66119 -0.72194,1.7017 -2.01107,2.99079 -1.28919,1.23762 -3.04238,2.01106 -1.7017,0.72192 -3.66119,0.72192 -1.95948,0 -3.71275,-0.72192 -1.7017,-0.7735 -2.99081,-2.01106 -1.23762,-1.28918 -2.01105,-2.99079 -0.72193,-1.7017 -0.72193,-3.66119 0,-1.90791 0.72193,-3.60961 0.77347,-1.75327 2.01105,-2.99081 1.2892,-1.28919 2.99081,-2.01106 1.75327,-0.77348 3.71275,-0.77348 1.95949,0 3.66119,0.77348 1.75319,0.72192 3.04238,2.01106 1.2892,1.23762 2.01107,2.99081 0.77348,1.7017 0.77348,3.60961 z"
       inkscape:connector-curvature="0" />
  </g>
</svg>
