<?xml version="1.0" encoding="UTF-8" standalone="no"?>
<svg
   xmlns:dc="http://purl.org/dc/elements/1.1/"
   xmlns:cc="http://creativecommons.org/ns#"
   xmlns:rdf="http://www.w3.org/1999/02/22-rdf-syntax-ns#"
   xmlns:svg="http://www.w3.org/2000/svg"
   xmlns="http://www.w3.org/2000/svg"
   xmlns:xlink="http://www.w3.org/1999/xlink"
   xmlns:sodipodi="http://sodipodi.sourceforge.net/DTD/sodipodi-0.dtd"
   xmlns:inkscape="http://www.inkscape.org/namespaces/inkscape"
   id="svg2"
   height="50mm"
   viewBox="0 0 708.66141 177.16536"
   width="200mm"
   version="1.1"
   inkscape:version="0.91 r13725"
   sodipodi:docname="logo.svg">
  <metadata
     id="metadata4249">
    <rdf:RDF>
      <cc:Work
         rdf:about="">
        <dc:format>image/svg+xml</dc:format>
        <dc:type
           rdf:resource="http://purl.org/dc/dcmitype/StillImage" />
        <dc:title />
      </cc:Work>
    </rdf:RDF>
  </metadata>
  <defs
     id="defs4247">
    <linearGradient
       inkscape:collect="always"
       id="linearGradient4294">
      <stop
         id="stop4298"
         offset="0"
         style="stop-color:#ad57d4;stop-opacity:1" />
      <stop
         style="stop-color:#988be0;stop-opacity:1"
         offset="0.52216077"
         id="stop4308" />
      <stop
         id="stop4296"
         offset="1"
         style="stop-color:#5885df;stop-opacity:1" />
    </linearGradient>
    <linearGradient
       inkscape:collect="always"
       xlink:href="#linearGradient4294"
       id="linearGradient4300"
       x1="41.222912"
       y1="212.49335"
       x2="490.39203"
       y2="211.42262"
       gradientUnits="userSpaceOnUse"
       gradientTransform="matrix(1.4414024,0,0,1.4414024,-33.655304,-173.74681)" />
  </defs>
  <sodipodi:namedview
     pagecolor="#ffffff"
     bordercolor="#666666"
     borderopacity="1"
     objecttolerance="10"
     gridtolerance="10"
     guidetolerance="10"
     inkscape:pageopacity="0"
     inkscape:pageshadow="2"
     inkscape:window-width="1920"
     inkscape:window-height="1004"
     id="namedview4245"
     showgrid="false"
     inkscape:zoom="1.9388667"
     inkscape:cx="353.55706"
     inkscape:cy="111.15893"
     inkscape:window-x="1920"
     inkscape:window-y="0"
     inkscape:window-maximized="1"
     inkscape:current-layer="svg2" />
  <g
     id="g4263"
     transform="matrix(0.67078228,0,0,0.67078228,175.8437,1.5150557)">
    <g
       id="g4243"
       transform="translate(-154.79968,15.322256)">
      <path
         id="path4138"
         d="m 140.67192,52.47076 0,-13.73132 q 0,-2.82274 -1.10043,-5.31058 -1.05258,-2.5357 -2.91845,-4.40158 -1.86589,-1.86588 -4.40159,-2.91846 -2.48784,-1.10036 -5.31059,-1.10036 -2.82274,0 -5.35844,1.10036 -2.48784,1.05258 -4.35372,2.91846 -1.86588,1.86588 -2.96631,4.40158 -1.05257,2.48784 -1.05257,5.31058 l 0,13.73132 27.46196,0 z m 13.73131,27.41391 -13.73131,0 0,-13.73131 -27.46196,0 0,13.73131 -13.683262,0 0,-41.14523 q 0,-5.69335 2.152942,-10.66923 2.15292,-5.02353 5.83689,-8.7551 3.73177,-3.73176 8.70772,-5.88469 5.02353,-2.15294 10.71661,-2.15294 5.69336,0 10.66924,2.15294 5.02354,2.15293 8.7551,5.88469 3.73176,3.73176 5.88469,8.7551 2.15293,4.97569 2.15293,10.66923 l 0,41.14523 z"
         inkscape:connector-curvature="0"
         style="fill:#57bae6;fill-opacity:1" />
      <path
         inkscape:connector-curvature="0"
         d="m 198.18339,73.90133 q -1.57882,1.43534 -3.39686,2.72704 -1.77024,1.24392 -3.73176,2.20079 -1.96158,0.90902 -4.06667,1.43534 -2.05722,0.5741 -4.21023,0.5741 -4.73648,0 -8.89859,-1.67453 -4.16237,-1.67453 -7.32016,-4.73648 -3.10981,-3.1098 -4.92784,-7.51171 -1.77017,-4.44944 -1.77017,-9.9511 l 0,-28.32292 13.01319,0 0,28.32292 q 0,2.58355 0.76552,4.64077 0.8133,2.00944 2.15293,3.39687 1.33963,1.38747 3.1098,2.10514 1.81803,0.71766 3.87532,0.71766 2.00945,0 3.77962,-0.90901 1.81803,-0.95686 3.15765,-2.48784 1.33963,-1.53098 2.10509,-3.44471 0.76552,-1.96159 0.76552,-4.01882 l 0,-28.32292 13.06123,0 0,51.24049 -3.15766,0 -4.30586,-5.9804 z"
         id="path4140"
         style="fill:#a2a2a2;fill-opacity:1" />
      <path
         inkscape:connector-curvature="0"
         d="m 224.22396,79.88133 -12.92594,0 0,-50.70973 3.12494,0 4.26127,6.01318 q 3.12495,-2.84087 7.10233,-4.35598 3.97726,-1.56248 8.2384,-1.56248 l 11.41075,0 0,12.87839 -11.41075,0 q -2.03592,0 -3.83519,0.75759 -1.79919,0.75759 -3.12495,2.08334 -1.32574,1.32576 -2.08334,3.12495 -0.75759,1.7992 -0.75759,3.83518 l 0,27.9351 z"
         id="path4142"
         style="fill:#a2a2a2;fill-opacity:1" />
      <path
         inkscape:connector-curvature="0"
         d="m 296.66289,79.91911 -10.75891,0 0.0143,-6.7555 c 0.33904,1.37053 0.31743,1.64297 -0.97377,3.03298 -1.31737,0.9191 -2.7113,1.73093 -4.18183,2.43559 -1.47052,0.67401 -2.98701,1.21012 -4.54946,1.60842 -1.53182,0.39827 -3.09427,0.59741 -4.68737,0.59741 -3.46192,0 -6.72473,-0.58209 -9.78835,-1.74624 -3.033,-1.16419 -5.69833,-2.84913 -7.99595,-5.05497 -2.2671,-2.23646 -4.05933,-4.96308 -5.3767,-8.17993 -1.31737,-3.21677 -1.97601,-6.87794 -1.97601,-10.98329 0,-3.82949 0.65869,-7.33757 1.97601,-10.52363 1.31737,-3.21679 3.1096,-5.97406 5.3767,-8.27161 2.29769,-2.29768 4.96309,-4.07465 7.99595,-5.33067 3.06362,-1.28673 6.32637,-1.93011 9.78835,-1.93011 1.5931,0 3.17087,0.19914 4.73326,0.5974 1.56245,0.39828 3.07895,0.94973 4.54948,1.65438 1.47052,0.70466 2.80425,1.55188 4.12156,2.50161 1.589,1.47195 1.65958,2.07852 0.98808,3.05889 l 2.71719,-7.54079 8.02735,0 z M 284.02567,54.87416 c 0,-1.71561 -0.33699,-3.37 -1.01101,-4.96309 -0.64337,-1.62374 -1.53182,-3.0483 -2.66534,-4.27376 -1.13353,-1.2561 -2.46623,-2.25172 -3.99803,-2.98702 -1.50117,-0.76594 -3.10959,-1.14884 -4.8252,-1.14884 -1.71561,0 -3.33935,0.29103 -4.87116,0.87312 -1.50117,0.58209 -2.81855,1.43989 -3.95207,2.57347 -1.10289,1.13353 -1.976,2.54283 -2.61938,4.2278 -0.64337,1.65438 -0.96505,3.55378 -0.96505,5.69832 0,2.14453 0.32167,4.05932 0.96505,5.74429 0.64338,1.65431 1.51649,3.0483 2.61938,4.18182 1.13352,1.13353 2.4509,1.9914 3.95207,2.57348 1.53181,0.58209 3.15555,0.87312 4.87116,0.87312 1.71561,0 3.32403,-0.36763 4.8252,-1.10288 1.5318,-0.76587 2.8645,-1.76158 3.99803,-2.98703 1.13352,-1.25609 2.02204,-2.68066 2.66534,-4.27375 0.67401,-1.62375 1.01101,-3.29338 1.01101,-5.00905 z"
         id="path4144"
         style="fill:#a2a2a2;fill-opacity:1" />
      <path
         inkscape:connector-curvature="0"
         d="m 314.80505,25.86505 q 0,1.3718 -0.54151,2.56312 -0.50541,1.19133 -1.4079,2.09381 -0.90254,0.86643 -2.12991,1.4079 -1.19133,0.5054 -2.56312,0.5054 -1.3718,0 -2.59924,-0.5054 -1.19133,-0.54153 -2.0938,-1.4079 -0.86644,-0.90254 -1.40791,-2.09381 -0.5054,-1.19132 -0.5054,-2.56312 0,-1.3357 0.5054,-2.52702 0.54151,-1.22744 1.40791,-2.0938 0.90253,-0.90254 2.0938,-1.40791 1.22744,-0.5415 2.59924,-0.5415 1.37179,0 2.56312,0.5415 1.22737,0.5054 2.12991,1.40791 0.90253,0.86643 1.4079,2.0938 0.54151,1.19132 0.54151,2.52702 z"
         id="path4168"
         style="fill:#a2a2a2;fill-opacity:1" />
      <path
         inkscape:connector-curvature="0"
         d="m 315.13683,79.88133 -13.15667,0 0,-44.92413 13.15667,0 0,44.92413 z"
         id="path4146"
         style="fill:#a2a2a2;fill-opacity:1" />
      <path
         inkscape:connector-curvature="0"
         d="m 333.94447,79.88133 -13.15667,0 0,-71.61987 13.15667,0 0,71.61987 z"
         id="path4148"
         style="fill:#a2a2a2;fill-opacity:1" />
      <path
         inkscape:connector-curvature="0"
         d="m 376.35001,74.18437 q -1.51441,1.37677 -3.25826,2.61578 -1.69797,1.19317 -3.57952,2.11099 -1.88156,0.87193 -3.90075,1.37678 -1.97331,0.55068 -4.03846,0.55068 -4.54324,0 -8.53555,-1.60621 -3.99255,-1.60622 -7.02151,-4.54324 -2.98292,-2.98293 -4.72684,-7.20523 -1.69795,-4.26792 -1.69795,-9.54513 l 0,-27.16738 12.48226,0 0,27.16738 q 0,2.47814 0.7343,4.45145 0.78012,1.92747 2.06508,3.25826 1.28498,1.33088 2.98293,2.01927 1.74385,0.68838 3.71721,0.68838 1.92745,0 3.62542,-0.87191 1.74385,-0.91784 3.02883,-2.38635 1.28497,-1.46852 2.01919,-3.30418 0.7343,-1.88155 0.7343,-3.85485 l 0,-27.16739 12.52834,0 0,49.14996 -3.02883,0 -4.13019,-5.73642 z"
         id="path4150"
         style="fill:#a2a2a2;fill-opacity:1" />
      <path
         inkscape:connector-curvature="0"
         d="m 416.2297,79.92039 -34.46248,0 0.24692,-12.59117 34.2159,0 c 0.86411,0 1.60476,-0.30861 2.22196,-0.92584 0.61721,-0.61722 0.92579,-1.35786 0.92579,-2.22197 0,-0.89497 -0.3086,-1.48131 -0.92579,-1.75902 -0.6172,-0.27775 -1.35785,-0.41662 -2.22196,-0.41662 l -13.14637,0 c -2.1911,0 -4.24332,-0.41662 -6.15693,-1.24985 -1.91332,-0.83324 -3.57976,-1.95962 -4.99935,-3.3792 -1.41958,-1.45045 -2.54596,-3.13231 -3.3792,-5.0457 -0.80238,-1.91333 -1.20354,-3.96555 -1.20354,-6.15693 0,-2.1911 0.40118,-4.24332 1.20354,-6.15637 0.83324,-1.91333 1.95962,-3.57983 3.3792,-4.9994 1.41959,-1.41959 3.08603,-2.53054 4.99935,-3.33292 1.9134,-0.83324 3.96555,-1.24983 6.15693,-1.24983 l 25.59888,0 -2.75153,13.23863 -22.84695,-0.64746 c -0.86378,-0.0245 -1.60477,0.30861 -2.22196,0.92584 -0.61722,0.61719 -0.92579,1.35785 -0.92579,2.2219 0,0.89498 0.30859,1.6665 0.92579,2.31451 0.61719,0.61719 1.35784,0.92583 2.22196,0.92583 l 13.14637,0 c 2.16023,0 4.19702,0.37031 6.11052,1.11095 1.91334,0.70979 3.57982,1.71272 4.99934,3.00892 1.41959,1.29612 2.54598,2.85459 3.37921,4.67532 0.83324,1.82075 1.24985,3.81123 1.24985,5.97131 0,2.1911 -0.41662,4.24333 -1.24985,6.15693 -0.83323,1.88248 -1.95962,3.54897 -3.37921,4.99936 -1.41958,1.41957 -3.086,2.54596 -4.99934,3.3792 -1.91334,0.80237 -3.95012,1.20355 -6.11052,1.20355 z"
         id="path4152"
         style="fill:#a2a2a2;fill-opacity:1" />
    </g>
    <g
       id="g4254"
       transform="matrix(1.0851384,0,0,1.0851384,162.14908,-62.884111)">
      <path
         inkscape:connector-curvature="0"
         d="m 190.99636,114.84838 q 0,4.34624 -1.14144,8.38535 -1.09753,3.99505 -3.16092,7.5071 -2.06339,3.46827 -4.91699,6.36567 -2.8536,2.85358 -6.36556,4.91701 -3.51214,2.06337 -7.55122,3.20477 -3.99505,1.09757 -8.34125,1.09757 l -18.96563,0 0,-62.95755 18.96563,0 q 4.34627,0 8.34125,1.14145 4.03895,1.09753 7.55122,3.16091 3.51214,2.06339 6.36556,4.96091 2.8536,2.85366 4.91699,6.36555 2.06339,3.4683 3.16092,7.50715 1.14144,3.99506 1.14144,8.34123 z m -12.60006,0 q 0,-3.9073 -1.49267,-7.33138 -1.44876,-3.42428 -4.03896,-5.97058 -2.54628,-2.5902 -6.01452,-4.08287 -3.42432,-1.49266 -7.33135,-1.49266 l -6.27799,0 0,37.75554 6.27799,0 q 3.90727,0 7.33135,-1.44875 3.46824,-1.49273 6.01452,-4.03904 2.5902,-2.59015 4.03896,-6.0145 1.49267,-3.4682 1.49267,-7.37543 z"
         id="path4154"
         style="fill:#a2a2a2;fill-opacity:1" />
      <path
         inkscape:connector-curvature="0"
         d="m 214.49555,134.15958 q 0.67609,0.21124 1.35212,0.29573 0.67609,0.0421 1.35212,0.0421 1.69016,0 3.25355,-0.46479 1.56344,-0.46478 2.91556,-1.30986 1.39438,-0.88739 2.45072,-2.11275 1.09861,-1.26762 1.7747,-2.78872 l 8.45085,8.49337 q -1.60565,2.28168 -3.71839,4.09864 -2.07048,1.81689 -4.52121,3.08458 -2.40851,1.2676 -5.11276,1.90138 -2.66199,0.67609 -5.49302,0.67609 -4.77472,0 -9.0002,-1.77465 -4.18317,-1.77472 -7.35212,-4.94378 -3.12683,-3.16907 -4.94372,-7.52134 -1.81689,-4.39444 -1.81689,-9.63389 0,-5.36625 1.81689,-9.80299 1.81689,-4.43676 4.94372,-7.56378 3.16908,-3.12678 7.35212,-4.85922 4.22542,-1.73243 9.0002,-1.73243 2.83103,0 5.53528,0.67609 2.70424,0.67609 5.11277,1.94369 2.45073,1.26765 4.56346,3.1268 2.11275,1.81689 3.71839,4.09864 l -21.63432,26.07113 z m 5.91564,-23.78939 q -0.80282,-0.29574 -1.60564,-0.3803 -0.76056,-0.0844 -1.60565,-0.0844 -2.36626,0 -4.47893,0.88732 -2.07048,0.84508 -3.63386,2.45074 -1.52118,1.60565 -2.40846,3.88733 -0.88735,2.23949 -0.88735,5.07052 0,0.63385 0.0422,1.43667 0.0845,0.80283 0.21128,1.64784 0.16902,0.80283 0.38029,1.56341 0.21128,0.76065 0.5493,1.35218 l 13.43694,-17.83123 z"
         id="path4156"
         style="fill:#a2a2a2;fill-opacity:1" />
      <path
         inkscape:connector-curvature="0"
         d="m 297.7931,144.93996 -12.62785,0 0,-41.4859 12.62785,0 z"
         id="path4160"
         style="fill:#a2a2a2;fill-opacity:1" />
      <path
         inkscape:connector-curvature="0"
         d="m 335.53003,123.43389 c 0,-1.54532 -0.30353,-3.03539 -0.91063,-4.47032 -0.57949,-1.46256 -1.37973,-2.74566 -2.40072,-3.8495 -1.02097,-1.13139 -2.22136,-2.02819 -3.6011,-2.69046 -1.35212,-0.68984 -2.80086,-1.03476 -4.34613,-1.03476 -1.54528,0 -3.00781,0.2621 -4.38754,0.78642 -1.35213,0.52431 -2.53872,1.29698 -3.5597,2.31792 -0.99338,1.02106 -1.77982,2.29041 -2.35931,3.80804 -0.5795,1.49013 -0.86924,3.20103 -0.86924,5.13266 0,1.84873 0.28974,3.51826 0.86924,5.00831 0.57949,1.4625 1.36593,2.71811 2.35931,3.76674 1.02098,1.04863 2.20757,1.86268 3.5597,2.44215 1.37973,0.55195 2.84226,0.82779 4.38754,0.82779 1.54527,0 2.99401,-0.33097 4.34613,-0.9934 1.37974,-0.68984 2.58013,-1.58671 3.6011,-2.69047 1.02099,-1.13146 1.82123,-2.41456 2.40072,-3.84943 0.6071,-1.46256 0.91063,-2.96637 0.91063,-4.51169 z m 11.38257,16.97075 c 0,3.11821 -0.59329,6.04327 -1.77983,8.77499 -1.18659,2.73188 -2.81466,5.11882 -4.88422,7.16109 -2.04203,2.042 -4.44273,3.65615 -7.20209,4.84285 -2.73186,1.1867 -5.65686,1.7799 -8.77496,1.7799 l -11.89415,-0.083 3.32874,-11.29996 8.48221,0.0827 c 1.76608,0 3.26995,-0.23458 4.51174,-0.70373 1.24179,-0.44158 2.29037,-1.0624 3.14575,-1.86263 0.85543,-0.77266 1.53154,-1.66945 2.02822,-2.69046 0.5243,-1.02094 0.93824,-2.09714 1.2418,-3.2286 -0.44153,0.71747 -1.07619,1.31086 -1.90403,1.77985 -0.82784,0.44162 -1.75228,0.80036 -2.77327,1.07627 -0.99338,0.30347 -2.04202,0.51056 -3.14581,0.62083 -1.07618,0.11045 -2.08337,0.16558 -3.0216,0.16558 -3.11821,0 -6.05707,-0.53813 -8.81654,-1.61427 -2.73186,-1.07613 -5.13256,-2.60764 -7.20208,-4.59446 -2.04202,-2.01445 -3.6563,-4.47038 -4.84282,-7.36791 -1.1866,-2.89742 -1.77983,-6.16727 -1.77983,-9.80967 0,-3.33893 0.5933,-6.44332 1.77983,-9.31312 1.18658,-2.86987 2.80086,-5.35337 4.84282,-7.45038 2.06958,-2.09713 4.47035,-3.73908 7.20208,-4.92561 2.75947,-1.18658 5.69828,-1.77982 8.81654,-1.77982 1.43493,0 2.856,0.17937 4.26333,0.53808 1.40733,0.35874 2.77327,0.85544 4.0978,1.49014 1.32452,0.6347 2.58012,1.37973 3.76665,2.23516 1.21418,0.85542 2.3455,1.77985 3.39414,2.77329 l 4.38754,-5.2568 2.73186,0 0,38.66021 z"
         id="path4162"
         style="fill:#a2a2a2;fill-opacity:1" />
      <path
         inkscape:connector-curvature="0"
         d="m 363.22781,144.93996 -11.4561,0 0,-44.94284 2.7696,0 3.77677,4.36423 q 2.7696,-2.51785 6.25256,-3.86068 3.52493,-1.3848 7.34373,-1.3848 4.11243,0 7.76346,1.59461 3.65085,1.55269 6.37842,4.32222 2.72763,2.72764 4.28032,6.42056 1.59461,3.65087 1.59461,7.80504 l 0,25.68173 -11.45611,0 0,-25.68173 q 0,-1.7625 -0.67145,-3.3151 -0.67143,-1.59472 -1.84643,-2.76962 -1.175,-1.17498 -2.72764,-1.84646 -1.55268,-0.67135 -3.31512,-0.67135 -1.80447,0 -3.39908,0.67135 -1.5946,0.67148 -2.7696,1.84646 -1.17499,1.1749 -1.84643,2.76962 -0.67145,1.5526 -0.67145,3.3151 l 0,25.68173 z"
         id="path4164"
         style="fill:#a2a2a2;fill-opacity:1" />
      <path
         sodipodi:nodetypes="cccscsssscccscscscccsscssccssccccc"
         inkscape:connector-curvature="0"
         d="m 266.28172,145.06243 -26.54554,0 3.47091,-11.57106 23.07505,0 c 0.79409,0 1.47478,-0.28358 2.04198,-0.85082 0.56723,-0.56716 0.85085,-1.24785 0.85085,-2.04194 0,-0.82252 -0.28361,-1.36138 -0.85085,-1.61667 -0.56721,-0.25521 -1.24789,-0.38283 -2.04198,-0.38283 l -12.08202,0 c -2.01363,0 -3.89961,-0.38289 -5.658,-1.14855 -1.75838,-0.76578 -3.28983,-1.801 -4.59447,-3.10559 -1.30457,-1.33302 -2.33979,-2.87861 -3.10552,-4.63697 -0.73736,-1.75836 -1.10606,-3.64434 -1.10606,-5.65798 0,-2.01364 0.3687,-3.89961 1.10606,-5.65797 0.76573,-1.75836 1.80095,-3.28987 3.10552,-4.59447 1.30458,-1.30456 2.83609,-2.32559 4.59447,-3.06295 1.75839,-0.76572 3.64437,-1.14862 5.658,-1.14862 l 26.16687,0 -2.61773,12.16632 -23.54955,-0.59501 c -0.79398,-0.0154 -1.47478,0.28359 -2.04199,0.85083 -0.56722,0.56723 -0.85084,1.24786 -0.85084,2.04194 0,0.82245 0.28361,1.53151 0.85084,2.1271 0.56722,0.56717 1.2479,0.85082 2.04199,0.85082 l 12.08201,0 c 1.98526,0 3.85706,0.34024 5.61545,1.02093 1.75839,0.65233 3.28984,1.57403 4.59447,2.76516 1.30457,1.19119 2.3398,2.62339 3.10552,4.29666 0.76572,1.67333 1.14862,3.50257 1.14862,5.48792 0,2.01358 -0.38287,3.89961 -1.14862,5.658 -0.76572,1.73 -1.80095,3.26151 -3.10552,4.59446 -1.30457,1.30465 -2.83608,2.33974 -4.59447,3.10553 -1.75839,0.73742 -3.63019,1.10603 -5.61545,1.10603 z"
         id="path4152-0"
         style="fill:#a2a2a2;fill-opacity:1" />
      <path
         inkscape:connector-curvature="0"
         d="m 297.74464,95.14117 q 0,1.30779 -0.51623,2.44352 -0.48183,1.13573 -1.34221,1.99609 -0.86042,0.826 -2.03052,1.3422 -1.13573,0.48182 -2.44351,0.48182 -1.30779,0 -2.47794,-0.48182 -1.13573,-0.51624 -1.99609,-1.3422 -0.82601,-0.86042 -1.3422,-1.99609 -0.48183,-1.13573 -0.48183,-2.44352 0,-1.27336 0.48183,-2.40909 0.51622,-1.17016 1.3422,-1.9961 0.86042,-0.86042 1.99609,-1.3422 1.17015,-0.51623 2.47794,-0.51623 1.30778,0 2.44351,0.51623 1.1701,0.48181 2.03052,1.3422 0.86043,0.826 1.34221,1.9961 0.51623,1.13573 0.51623,2.40909 z"
         id="path4168-3"
         style="fill:#a2a2a2;fill-opacity:1" />
    </g>
  </g>
  <path
     style="fill:none;fill-rule:evenodd;stroke:#d3d3d3;stroke-width:4.11362076;stroke-linecap:round;stroke-linejoin:miter;stroke-miterlimit:4;stroke-dasharray:none;stroke-opacity:1"
     d="m 42.713619,86.852345 623.234171,0"
     id="path4288"
     inkscape:connector-curvature="0" />
  <g
     style="font-style:normal;font-weight:normal;font-size:69.39394379px;line-height:125%;font-family:sans-serif;letter-spacing:0px;word-spacing:0px;fill:url(#linearGradient4300);fill-opacity:1;stroke:none;stroke-width:1px;stroke-linecap:butt;stroke-linejoin:miter;stroke-opacity:1"
     id="text4290">
    <path
       d="m 30.959816,121.60838 -14.225758,0 0,-12.69909 44.828487,0 0,12.69909 -14.225758,0 0,35.87667 -16.376971,0 0,-35.87667 z"
       style="font-style:normal;font-variant:normal;font-weight:900;font-stretch:normal;font-family:'Montserrat Black';-inkscape-font-specification:'Montserrat Black, Heavy';fill:url(#linearGradient4300);fill-opacity:1"
       id="path4196" />
    <path
       d="m 96.477459,149.01899 -18.458789,0 -3.261515,8.46606 -16.654547,0 21.234547,-48.57576 16.099395,0 21.23455,48.57576 -16.932126,0 -3.261515,-8.46606 z m -4.510606,-11.79698 -4.718789,-12.21333 -4.718788,12.21333 9.437577,0 z"
       style="font-style:normal;font-variant:normal;font-weight:900;font-stretch:normal;font-family:'Montserrat Black';-inkscape-font-specification:'Montserrat Black, Heavy';fill:url(#linearGradient4300);fill-opacity:1"
       id="path4198" />
    <path
       d="m 147.38334,157.48505 -8.39666,-12.97667 -8.18849,12.97667 -18.66697,0 17.55667,-24.49607 -16.93213,-24.07969 18.3894,0 8.25788,12.21333 8.0497,-12.21333 17.62606,0 -16.86273,23.45515 17.90364,25.12061 -18.73637,0 z"
       style="font-style:normal;font-variant:normal;font-weight:900;font-stretch:normal;font-family:'Montserrat Black';-inkscape-font-specification:'Montserrat Black, Heavy';fill:url(#linearGradient4300);fill-opacity:1"
       id="path4200" />
    <path
       d="m 215.4935,158.59535 q -7.70273,0 -13.87879,-3.19212 -6.17606,-3.26152 -9.71515,-9.02121 -3.4697,-5.8291 -3.4697,-13.18485 0,-7.35576 3.4697,-13.11546 3.53909,-5.82909 9.71515,-9.02121 6.17606,-3.26152 13.87879,-3.26152 7.07818,0 12.62969,2.49818 5.55152,2.49819 9.16001,7.21697 l -10.3397,9.2294 q -4.51061,-5.6903 -10.61728,-5.6903 -5.13515,0 -8.25787,3.33091 -3.12273,3.26151 -3.12273,8.81303 0,5.55151 3.12273,8.88242 3.12272,3.26152 8.25787,3.26152 6.10667,0 10.61728,-5.69031 l 10.3397,9.2294 q -3.60849,4.71879 -9.16001,7.21697 -5.55151,2.49818 -12.62969,2.49818 z"
       style="font-style:normal;font-variant:normal;font-weight:900;font-stretch:normal;font-family:'Montserrat Black';-inkscape-font-specification:'Montserrat Black, Heavy';fill:url(#linearGradient4300);fill-opacity:1"
       id="path4202" />
    <path
       d="m 274.43498,149.01899 -18.45879,0 -3.26151,8.46606 -16.65455,0 21.23455,-48.57576 16.09939,0 21.23455,48.57576 -16.93212,0 -3.26152,-8.46606 z m -4.5106,-11.79698 -4.71879,-12.21333 -4.71879,12.21333 9.43758,0 z"
       style="font-style:normal;font-variant:normal;font-weight:900;font-stretch:normal;font-family:'Montserrat Black';-inkscape-font-specification:'Montserrat Black, Heavy';fill:url(#linearGradient4300);fill-opacity:1"
       id="path4204" />
    <path
       d="m 297.31004,108.90929 16.37697,0 0,35.87666 21.92849,0 0,12.6991 -38.30546,0 0,-48.57576 z"
       style="font-style:normal;font-variant:normal;font-weight:900;font-stretch:normal;font-family:'Montserrat Black';-inkscape-font-specification:'Montserrat Black, Heavy';fill:url(#linearGradient4300);fill-opacity:1"
       id="path4206" />
    <path
       d="m 364.58204,158.59535 q -7.70272,0 -13.87878,-3.19212 -6.17607,-3.26152 -9.71516,-9.02121 -3.46969,-5.8291 -3.46969,-13.18485 0,-7.35576 3.46969,-13.11546 3.53909,-5.82909 9.71516,-9.02121 6.17606,-3.26152 13.87878,-3.26152 7.07819,0 12.6297,2.49818 5.55152,2.49819 9.16,7.21697 l -10.3397,9.2294 q -4.5106,-5.6903 -10.61727,-5.6903 -5.13515,0 -8.25788,3.33091 -3.12273,3.26151 -3.12273,8.81303 0,5.55151 3.12273,8.88242 3.12273,3.26152 8.25788,3.26152 6.10667,0 10.61727,-5.69031 l 10.3397,9.2294 q -3.60848,4.71879 -9.16,7.21697 -5.55151,2.49818 -12.6297,2.49818 z"
       style="font-style:normal;font-variant:normal;font-weight:900;font-stretch:normal;font-family:'Montserrat Black';-inkscape-font-specification:'Montserrat Black, Heavy';fill:url(#linearGradient4300);fill-opacity:1"
       id="path4208" />
    <path
       d="m 413.66959,158.59535 q -11.17243,0 -17.41788,-6.03727 -6.24546,-6.03728 -6.24546,-16.93213 l 0,-26.71666 16.37697,0 0,26.23091 q 0,5.34333 1.87364,7.77212 1.94303,2.42879 5.55152,2.42879 3.60848,0 5.48212,-2.42879 1.94303,-2.42879 1.94303,-7.77212 l 0,-26.23091 16.09939,0 0,26.71666 q 0,10.89485 -6.24545,16.93213 -6.24546,6.03727 -17.41788,6.03727 z"
       style="font-style:normal;font-variant:normal;font-weight:900;font-stretch:normal;font-family:'Montserrat Black';-inkscape-font-specification:'Montserrat Black, Heavy';fill:url(#linearGradient4300);fill-opacity:1"
       id="path4210" />
    <path
       d="m 444.77217,108.90929 16.37697,0 0,35.87666 21.92848,0 0,12.6991 -38.30545,0 0,-48.57576 z"
       style="font-style:normal;font-variant:normal;font-weight:900;font-stretch:normal;font-family:'Montserrat Black';-inkscape-font-specification:'Montserrat Black, Heavy';fill:url(#linearGradient4300);fill-opacity:1"
       id="path4212" />
    <path
       d="m 521.37982,149.01899 -18.45879,0 -3.26151,8.46606 -16.65455,0 21.23455,-48.57576 16.09939,0 21.23455,48.57576 -16.93212,0 -3.26152,-8.46606 z m -4.5106,-11.79698 -4.71879,-12.21333 -4.71879,12.21333 9.43758,0 z"
       style="font-style:normal;font-variant:normal;font-weight:900;font-stretch:normal;font-family:'Montserrat Black';-inkscape-font-specification:'Montserrat Black, Heavy';fill:url(#linearGradient4300);fill-opacity:1"
       id="path4214" />
    <path
       d="m 552.36314,121.60838 -14.22576,0 0,-12.69909 44.82849,0 0,12.69909 -14.22576,0 0,35.87667 -16.37697,0 0,-35.87667 z"
       style="font-style:normal;font-variant:normal;font-weight:900;font-stretch:normal;font-family:'Montserrat Black';-inkscape-font-specification:'Montserrat Black, Heavy';fill:url(#linearGradient4300);fill-opacity:1"
       id="path4216" />
    <path
       d="m 612.0094,158.59535 q -7.84152,0 -14.08697,-3.26152 -6.24546,-3.26151 -9.78455,-9.02121 -3.53909,-5.82909 -3.53909,-13.11545 0,-7.28637 3.53909,-13.04607 3.53909,-5.82909 9.78455,-9.0906 6.24545,-3.26152 14.08697,-3.26152 7.84151,0 14.08697,3.26152 6.24545,3.26151 9.78454,9.0906 3.53909,5.7597 3.53909,13.04607 0,7.28636 -3.53909,13.11545 -3.53909,5.7597 -9.78454,9.02121 -6.24546,3.26152 -14.08697,3.26152 z m 0,-13.25424 q 3.05333,0 5.48212,-1.45728 2.49818,-1.52666 3.95545,-4.23303 1.45728,-2.77575 1.45728,-6.45363 0,-3.67788 -1.45728,-6.38425 -1.45727,-2.77575 -3.95545,-4.23303 -2.42879,-1.52666 -5.48212,-1.52666 -3.05334,0 -5.55152,1.52666 -2.42879,1.45728 -3.88606,4.23303 -1.45727,2.70637 -1.45727,6.38425 0,3.67788 1.45727,6.45363 1.45727,2.70637 3.88606,4.23303 2.49818,1.45728 5.55152,1.45728 z"
       style="font-style:normal;font-variant:normal;font-weight:900;font-stretch:normal;font-family:'Montserrat Black';-inkscape-font-specification:'Montserrat Black, Heavy';fill:url(#linearGradient4300);fill-opacity:1"
       id="path4218" />
    <path
       d="m 666.18221,145.27171 -4.44122,0 0,12.21334 -16.37697,0 0,-48.57576 23.38576,0 q 6.73122,0 11.72758,2.2206 4.99636,2.22061 7.70273,6.38424 2.70636,4.16364 2.70636,9.71516 0,5.20454 -2.35939,9.0906 -2.3594,3.88606 -6.80061,6.17606 l 10.20091,14.9891 -17.48727,0 -8.25788,-12.21334 z m 8.18848,-18.04242 q 0,-2.70637 -1.66545,-4.16364 -1.66546,-1.52667 -4.99637,-1.52667 l -5.96788,0 0,11.38061 5.96788,0 q 3.33091,0 4.99637,-1.45727 1.66545,-1.52667 1.66545,-4.23303 z"
       style="font-style:normal;font-variant:normal;font-weight:900;font-stretch:normal;font-family:'Montserrat Black';-inkscape-font-specification:'Montserrat Black, Heavy';fill:url(#linearGradient4300);fill-opacity:1"
       id="path4220" />
  </g>
</svg>
