<?xml version="1.0" standalone="no"?>
<svg
  width="600"
  height="600"
  viewBox="0 0 600 600"
  xmlns="http://www.w3.org/2000/svg"
>
  <g transform="translate(300,300)">
    <path d="M24.9,-54.1C40.1,-29,65.5,-35.3,81.4,-28.8C97.3,-22.4,103.6,-3.3,106.8,19.5C110,42.4,110.2,69,101.3,98.4C92.3,127.7,74.3,159.8,45,181.1C15.7,202.5,-25,213,-57,200.7C-89.1,188.3,-112.6,153.1,-143.4,121.8C-174.2,90.6,-212.3,63.3,-230.9,24.8C-249.4,-13.7,-248.4,-63.3,-216.4,-84.5C-184.4,-105.6,-121.4,-98.2,-80.2,-111.4C-38.9,-124.6,-19.5,-158.3,-7.3,-146.9C4.9,-135.6,9.7,-79.1,24.9,-54.1Z" fill="#e7c3e2" />
  </g>
</svg>
    
