<?xml version="1.0" standalone="no"?>
<svg
  width="600"
  height="600"
  viewBox="0 0 600 600"
  xmlns="http://www.w3.org/2000/svg"
>
  <g transform="translate(300,300)">
    <path d="M113.4,-163.7C152.2,-151.5,192.5,-128.9,196.8,-96.6C201.1,-64.3,169.3,-22.3,167.2,27.2C165,76.7,192.5,133.6,173.2,142.8C153.9,152,88,113.4,45.9,100.2C3.8,87,-14.5,99.1,-51.1,115.3C-87.8,131.4,-142.9,151.5,-166.3,137.1C-189.7,122.7,-181.5,73.8,-164.4,37.9C-147.3,2.1,-121.4,-20.8,-98.5,-34.2C-75.6,-47.6,-55.6,-51.6,-39.7,-74.1C-23.8,-96.7,-11.9,-137.8,12.7,-157.6C37.3,-177.4,74.6,-175.8,113.4,-163.7Z" fill="#7DB8FF" />
  </g>
</svg>
    
