<?xml version="1.0" standalone="no"?>
<svg
  width="600"
  height="600"
  viewBox="0 0 600 600"
  xmlns="http://www.w3.org/2000/svg"
>
  <g transform="translate(300,300)">
    <path d="M31,-44.1C60.6,-29.2,119,-55.1,161.5,-48.4C204,-41.7,230.7,-2.3,219.8,27.3C208.9,57,160.4,76.9,122.9,89.3C85.5,101.7,59.1,106.5,38.7,96.1C18.4,85.7,4.1,60.1,-33.2,69.2C-70.5,78.3,-130.9,122,-172.5,122.4C-214.2,122.9,-237.3,80.2,-239.5,37C-241.8,-6.2,-223.2,-49.8,-200.9,-88.9C-178.6,-127.9,-152.6,-162.4,-118.5,-175.1C-84.3,-187.9,-42.2,-179,-20.7,-146.7C0.7,-114.5,1.4,-58.9,31,-44.1Z" fill="#7DB8FF" />
  </g>
</svg>
    
