<?xml version="1.0" standalone="no"?>
<svg
  width="600"
  height="600"
  viewBox="0 0 600 600"
  xmlns="http://www.w3.org/2000/svg"
>
  <g transform="translate(300,300)">
    <path d="M58,-81.4C99.4,-63.6,173.8,-88.5,207.8,-76.6C241.8,-64.6,235.2,-15.9,219,24.8C202.8,65.6,177,98.3,149.8,130.1C122.6,161.8,94.1,192.7,64.6,185.6C35.1,178.5,4.6,133.4,-40.1,125.4C-84.8,117.3,-143.7,146.4,-153.2,133.7C-162.7,121,-122.9,66.5,-110.4,27.5C-97.9,-11.4,-112.6,-34.8,-116.3,-64.1C-120,-93.5,-112.7,-128.7,-91.5,-155.7C-70.3,-182.7,-35.1,-201.3,-13.4,-180.5C8.3,-159.6,16.6,-99.1,58,-81.4Z" fill="#FEC0DC" />
  </g>
</svg>
    
