<?xml version="1.0" standalone="no"?>
<svg
  width="600"
  height="600"
  viewBox="0 0 600 600"
  xmlns="http://www.w3.org/2000/svg"
>
  <g transform="translate(300,300)">
    <path d="M91.2,-131.1C129.4,-117.3,179.3,-111,181.7,-88.1C184.2,-65.3,139.1,-25.9,134.3,20.5C129.4,66.9,164.9,120.2,161.5,160C158.2,199.8,116.2,226.1,76,220.3C35.8,214.6,-2.5,176.9,-37.1,154C-71.6,131.2,-102.3,123.2,-136.4,105.9C-170.5,88.6,-208,61.9,-209.3,32C-210.6,2.1,-175.8,-31.2,-136,-38.7C-96.2,-46.3,-51.3,-28.2,-27.8,-48.6C-4.3,-69.1,-2.2,-128,12.2,-147C26.5,-165.9,53,-144.8,91.2,-131.1Z" fill="#FEC0DC" />
  </g>
</svg>
    
