<?xml version="1.0" encoding="UTF-8" standalone="no"?>
<!-- Created with Inkscape (http://www.inkscape.org/) -->

<svg
   xmlns:dc="http://purl.org/dc/elements/1.1/"
   xmlns:cc="http://creativecommons.org/ns#"
   xmlns:rdf="http://www.w3.org/1999/02/22-rdf-syntax-ns#"
   xmlns:svg="http://www.w3.org/2000/svg"
   xmlns="http://www.w3.org/2000/svg"
   xmlns:sodipodi="http://sodipodi.sourceforge.net/DTD/sodipodi-0.dtd"
   xmlns:inkscape="http://www.inkscape.org/namespaces/inkscape"
   width="100mm"
   height="100mm"
   viewBox="0 0 354.33071 354.33071"
   id="svg7709"
   version="1.1"
   inkscape:version="0.91 r13725"
   sodipodi:docname="revisions.svg">
  <defs
     id="defs7711">
    <filter
       inkscape:collect="always"
       style="color-interpolation-filters:sRGB"
       id="filter6962"
       x="-0.14480661"
       width="1.2896132"
       y="-0.10965058"
       height="1.2193012">
      <feGaussianBlur
         inkscape:collect="always"
         stdDeviation="12.047141"
         id="feGaussianBlur6964" />
    </filter>
  </defs>
  <sodipodi:namedview
     id="base"
     pagecolor="#ffffff"
     bordercolor="#666666"
     borderopacity="1.0"
     inkscape:pageopacity="0.0"
     inkscape:pageshadow="2"
     inkscape:zoom="1.0011833"
     inkscape:cx="-15.977596"
     inkscape:cy="193.46896"
     inkscape:document-units="px"
     inkscape:current-layer="layer1"
     showgrid="false"
     inkscape:window-width="1920"
     inkscape:window-height="1004"
     inkscape:window-x="0"
     inkscape:window-y="0"
     inkscape:window-maximized="1" />
  <metadata
     id="metadata7714">
    <rdf:RDF>
      <cc:Work
         rdf:about="">
        <dc:format>image/svg+xml</dc:format>
        <dc:type
           rdf:resource="http://purl.org/dc/dcmitype/StillImage" />
        <dc:title />
      </cc:Work>
    </rdf:RDF>
  </metadata>
  <g
     inkscape:label="Layer 1"
     inkscape:groupmode="layer"
     id="layer1"
     transform="translate(0,-698.0315)">
    <g
       id="g6936"
       style="filter:url(#filter6962)"
       transform="matrix(-0.98215318,0,0,-0.98215318,351.16889,1734.7743)">
      <path
         style="fill:#9c98de;fill-opacity:1;fill-rule:evenodd;stroke:none;stroke-width:1px;stroke-linecap:butt;stroke-linejoin:miter;stroke-opacity:1"
         d="m 276.99898,859.30115 0,64.4003 c 0,0 10e-6,43.43656 -47.47717,43.43656 l -30.48224,0 0,39.90099 -58.58885,-58.58881 59.85154,-59.85154 0,36.61803 28.46194,0 c 0,0 12.87945,0.88388 12.87945,-12.87944 l 0,-52.53101 z"
         id="path6938"
         inkscape:connector-curvature="0"
         sodipodi:nodetypes="ccsccccccscc" />
      <path
         style="fill:#8896cb;fill-opacity:1;fill-rule:evenodd;stroke:none;stroke-width:1px;stroke-linecap:butt;stroke-linejoin:miter;stroke-opacity:1"
         d="m 77.331732,891.09257 0,-64.40028 c 0,0 -1e-5,-43.43656 47.477168,-43.43656 l 30.48224,0 0,-39.90105 58.58885,58.58887 -59.85154,59.85154 0,-36.61803 -28.46194,0 c 0,0 -12.87945,-0.88388 -12.87945,12.87944 l 0,52.53097 z"
         id="path6940"
         inkscape:connector-curvature="0"
         sodipodi:nodetypes="ccsccccccscc" />
    </g>
    <g
       id="g6932"
       transform="matrix(-0.98215318,0,0,-0.98215318,351.16889,1734.7743)">
      <path
         sodipodi:nodetypes="ccsccccccscc"
         inkscape:connector-curvature="0"
         id="path8257"
         d="m 276.99898,859.30115 0,64.4003 c 0,0 10e-6,43.43656 -47.47717,43.43656 l -30.48224,0 0,39.90099 -58.58885,-58.58881 59.85154,-59.85154 0,36.61803 28.46194,0 c 0,0 12.87945,0.88388 12.87945,-12.87944 l 0,-52.53101 z"
         style="fill:#9c98de;fill-opacity:1;fill-rule:evenodd;stroke:none;stroke-width:1px;stroke-linecap:butt;stroke-linejoin:miter;stroke-opacity:1" />
      <path
         sodipodi:nodetypes="ccsccccccscc"
         inkscape:connector-curvature="0"
         id="path8257-2"
         d="m 77.331732,891.09257 0,-64.40028 c 0,0 -1e-5,-43.43656 47.477168,-43.43656 l 30.48224,0 0,-39.90105 58.58885,58.58887 -59.85154,59.85154 0,-36.61803 -28.46194,0 c 0,0 -12.87945,-0.88388 -12.87945,12.87944 l 0,52.53097 z"
         style="fill:#8896cb;fill-opacity:1;fill-rule:evenodd;stroke:none;stroke-width:1px;stroke-linecap:butt;stroke-linejoin:miter;stroke-opacity:1" />
    </g>
  </g>
</svg>
